<svg xmlns="http://www.w3.org/2000/svg" xmlns:xlink="http://www.w3.org/1999/xlink" contentStyleType="text/css" data-diagram-type="CLASS" height="1170.8333px" preserveAspectRatio="none" style="width:1103px;height:1170px;" version="1.1" viewBox="0 0 1103 1170" width="1103.125px" zoomAndPan="magnify"><?plantuml 1.2026.3beta6?><defs><linearGradient id="g1i2se0tx6381z0" x1="50%" x2="50%" y1="0%" y2="100%"><stop offset="0%" stop-color="#7C9AB9"/><stop offset="100%" stop-color="#304D6D"/></linearGradient><linearGradient id="g1i2se0tx6381z1" x1="50%" x2="50%" y1="0%" y2="100%"><stop offset="0%" stop-color="#7C9AB9"/><stop offset="100%" stop-color="#446E9B"/></linearGradient></defs><g><!--class JpaService--><g class="entity" data-qualified-name="JpaService" data-source-line="6" id="ent0002"><rect fill="url(#g1i2se0tx6381z0)" height="122.1029" rx="4.1667" ry="4.1667" style="stroke:#304D6D;stroke-width:1.0417;" width="239.0717" x="17.7083" y="53.3333"/><rect fill="url(#g1i2se0tx6381z1)" height="34.1715" rx="4.1667" ry="4.1667" style="stroke:url(#g1i2se0tx6381z1);stroke-width:1.0417;" width="239.0717" x="17.7083" y="53.3333"/><rect fill="url(#g1i2se0tx6381z1)" height="4.1667" style="stroke:url(#g1i2se0tx6381z1);stroke-width:1.0417;" width="239.0717" x="17.7083" y="83.3382"/><rect fill="none" height="122.1029" rx="4.1667" ry="4.1667" style="stroke:#304D6D;stroke-width:1.0417;" width="239.0717" x="17.7083" y="53.3333"/><ellipse cx="97.8582" cy="70.4191" fill="#B8B8B8" rx="10.4167" ry="10.4167" style="stroke:#6B6B6B;stroke-width:1.0417;"/><path d="M99.7625,74.8462 Q99.3393,75.0578 98.8673,75.1717 Q98.3953,75.2856 97.8907,75.2856 Q96.0353,75.2856 95.0587,74.0812 Q94.0984,72.8605 94.0984,70.5656 Q94.0984,68.2544 95.0587,67.05 Q96.0353,65.8293 97.8907,65.8293 Q98.3953,65.8293 98.8673,65.9432 Q99.3556,66.0409 99.7625,66.2687 L99.7625,68.2707 Q99.3067,67.8475 98.8673,67.6522 Q98.4278,67.4406 97.9721,67.4406 Q96.9793,67.4406 96.4747,68.2381 Q95.9702,69.0194 95.9702,70.5656 Q95.9702,72.0955 96.4747,72.8768 Q96.9793,73.658 97.9721,73.658 Q98.4278,73.658 98.8673,73.4627 Q99.3067,73.2674 99.7625,72.8442 L99.7625,74.8462 Z " fill="#FFFFFF"/><text fill="#EEEEEE" font-family="'Verdana'" font-size="11.4583" lengthAdjust="spacing" textLength="60.022" x="122.8582" y="74.3859">JpaService</text><line style="stroke:#304D6D;stroke-width:1.0417;" x1="18.75" x2="255.7383" y1="87.5049" y2="87.5049"/><g data-visibility-modifier="PRIVATE_FIELD"><rect fill="none" height="6.25" style="stroke:#304D6D;stroke-width:1.0417;" width="6.25" x="26.0417" y="101.9865"/></g><text fill="#EEEEEE" font-family="'Verdana'" font-size="11.4583" lengthAdjust="spacing" textLength="156.3324" x="42.7083" y="107.5158">emf: EntityManagerFactory</text><line style="stroke:#304D6D;stroke-width:1.0417;" x1="18.75" x2="255.7383" y1="119.5931" y2="119.5931"/><g data-visibility-modifier="PUBLIC_METHOD"><ellipse cx="29.1667" cy="137.1997" fill="none" rx="3.125" ry="3.125" style="stroke:#304D6D;stroke-width:1.0417;"/></g><text fill="#EEEEEE" font-family="'Verdana'" font-size="11.4583" lengthAdjust="spacing" textLength="202.6133" x="42.7083" y="139.604">getEntityManager(): EntityManager</text><g data-visibility-modifier="PUBLIC_METHOD"><ellipse cx="29.1667" cy="160.9546" fill="none" rx="3.125" ry="3.125" style="stroke:#304D6D;stroke-width:1.0417;"/></g><text fill="#EEEEEE" font-family="'Verdana'" font-size="11.4583" lengthAdjust="spacing" textLength="70.2047" x="42.7083" y="163.3589">close(): void</text></g><!--class Main--><g class="entity" data-qualified-name="Main" data-source-line="11" id="ent0003"><rect fill="url(#g1i2se0tx6381z0)" height="193.3675" rx="4.1667" ry="4.1667" style="stroke:#304D6D;stroke-width:1.0417;" width="351.2436" x="292.875" y="17.7083"/><rect fill="url(#g1i2se0tx6381z1)" height="34.1715" rx="4.1667" ry="4.1667" style="stroke:url(#g1i2se0tx6381z1);stroke-width:1.0417;" width="351.2436" x="292.875" y="17.7083"/><rect fill="url(#g1i2se0tx6381z1)" height="4.1667" style="stroke:url(#g1i2se0tx6381z1);stroke-width:1.0417;" width="351.2436" x="292.875" y="47.7132"/><rect fill="none" height="193.3675" rx="4.1667" ry="4.1667" style="stroke:#304D6D;stroke-width:1.0417;" width="351.2436" x="292.875" y="17.7083"/><ellipse cx="445.4451" cy="34.7941" fill="#B8B8B8" rx="10.4167" ry="10.4167" style="stroke:#6B6B6B;stroke-width:1.0417;"/><path d="M447.3494,39.2212 Q446.9262,39.4328 446.4542,39.5467 Q445.9822,39.6606 445.4776,39.6606 Q443.6222,39.6606 442.6456,38.4562 Q441.6853,37.2355 441.6853,34.9406 Q441.6853,32.6294 442.6456,31.425 Q443.6222,30.2043 445.4776,30.2043 Q445.9822,30.2043 446.4542,30.3182 Q446.9425,30.4159 447.3494,30.6437 L447.3494,32.6457 Q446.8937,32.2225 446.4542,32.0272 Q446.0148,31.8156 445.559,31.8156 Q444.5662,31.8156 444.0616,32.6131 Q443.5571,33.3944 443.5571,34.9406 Q443.5571,36.4705 444.0616,37.2518 Q444.5662,38.033 445.559,38.033 Q446.0148,38.033 446.4542,37.8377 Q446.8937,37.6424 447.3494,37.2192 L447.3494,39.2212 Z " fill="#FFFFFF"/><text fill="#EEEEEE" font-family="'Verdana'" font-size="11.4583" lengthAdjust="spacing" textLength="27.3534" x="470.4451" y="38.7609">Main</text><line style="stroke:#304D6D;stroke-width:1.0417;" x1="293.9167" x2="643.0769" y1="51.8799" y2="51.8799"/><line style="stroke:#304D6D;stroke-width:1.0417;" x1="293.9167" x2="643.0769" y1="60.2132" y2="60.2132"/><g data-visibility-modifier="PRIVATE_METHOD"><rect fill="none" height="6.25" style="stroke:#304D6D;stroke-width:1.0417;" width="6.25" x="301.2083" y="74.6948"/></g><text fill="#EEEEEE" font-family="'Verdana'" font-size="11.4583" lengthAdjust="spacing" textLength="297.111" x="317.875" y="80.2241">buscarSuplemento(SuplementoDAO, Scanner): void</text><g data-visibility-modifier="PRIVATE_METHOD"><rect fill="none" height="6.25" style="stroke:#304D6D;stroke-width:1.0417;" width="6.25" x="301.2083" y="98.4497"/></g><text fill="#EEEEEE" font-family="'Verdana'" font-size="11.4583" lengthAdjust="spacing" textLength="314.7853" x="317.875" y="103.979">actualizarSuplemento(SuplementoDAO, Scanner): void</text><g data-visibility-modifier="PRIVATE_METHOD"><rect fill="none" height="6.25" style="stroke:#304D6D;stroke-width:1.0417;" width="6.25" x="301.2083" y="122.2046"/></g><text fill="#EEEEEE" font-family="'Verdana'" font-size="11.4583" lengthAdjust="spacing" textLength="303.6346" x="317.875" y="127.7339">agregarSuplemento(SuplementoDAO, Scanner): void</text><g data-visibility-modifier="PUBLIC_METHOD"><ellipse cx="304.3333" cy="149.0845" fill="none" rx="3.125" ry="3.125" style="stroke:#304D6D;stroke-width:1.0417;"/></g><text fill="#EEEEEE" font-family="'Verdana'" font-size="11.4583" lengthAdjust="spacing" textLength="112.4573" x="317.875" y="151.4887">main(String[]): void</text><g data-visibility-modifier="PRIVATE_METHOD"><rect fill="none" height="6.25" style="stroke:#304D6D;stroke-width:1.0417;" width="6.25" x="301.2083" y="169.7144"/></g><text fill="#EEEEEE" font-family="'Verdana'" font-size="11.4583" lengthAdjust="spacing" textLength="305.3299" x="317.875" y="175.2436">eliminarSuplemento(SuplementoDAO, Scanner): void</text><g data-visibility-modifier="PRIVATE_METHOD"><rect fill="none" height="6.25" style="stroke:#304D6D;stroke-width:1.0417;" width="6.25" x="301.2083" y="193.4692"/></g><text fill="#EEEEEE" font-family="'Verdana'" font-size="11.4583" lengthAdjust="spacing" textLength="238.9409" x="317.875" y="198.9985">listarSuplementos(SuplementoDAO): void</text></g><!--class Suplemento--><g class="entity" data-qualified-name="Suplemento" data-source-line="19" id="ent0004"><rect fill="url(#g1i2se0tx6381z0)" height="644.7103" rx="4.1667" ry="4.1667" style="stroke:#304D6D;stroke-width:1.0417;" width="203.0797" x="528.4167" y="505.6875"/><rect fill="url(#g1i2se0tx6381z1)" height="34.1715" rx="4.1667" ry="4.1667" style="stroke:url(#g1i2se0tx6381z1);stroke-width:1.0417;" width="203.0797" x="528.4167" y="505.6875"/><rect fill="url(#g1i2se0tx6381z1)" height="4.1667" style="stroke:url(#g1i2se0tx6381z1);stroke-width:1.0417;" width="203.0797" x="528.4167" y="535.6924"/><rect fill="none" height="644.7103" rx="4.1667" ry="4.1667" style="stroke:#304D6D;stroke-width:1.0417;" width="203.0797" x="528.4167" y="505.6875"/><ellipse cx="586.0723" cy="522.7733" fill="#B8B8B8" rx="10.4167" ry="10.4167" style="stroke:#6B6B6B;stroke-width:1.0417;"/><path d="M587.9766,527.2004 Q587.5534,527.4119 587.0814,527.5259 Q586.6094,527.6398 586.1048,527.6398 Q584.2493,527.6398 583.2728,526.4354 Q582.3125,525.2147 582.3125,522.9198 Q582.3125,520.6086 583.2728,519.4041 Q584.2493,518.1834 586.1048,518.1834 Q586.6094,518.1834 587.0814,518.2974 Q587.5697,518.395 587.9766,518.6229 L587.9766,520.6248 Q587.5208,520.2017 587.0814,520.0063 Q586.6419,519.7948 586.1862,519.7948 Q585.1933,519.7948 584.6888,520.5923 Q584.1842,521.3735 584.1842,522.9198 Q584.1842,524.4497 584.6888,525.231 Q585.1933,526.0122 586.1862,526.0122 Q586.6419,526.0122 587.0814,525.8169 Q587.5208,525.6216 587.9766,525.1984 L587.9766,527.2004 Z " fill="#FFFFFF"/><text fill="#EEEEEE" font-family="'Verdana'" font-size="11.4583" lengthAdjust="spacing" textLength="69.0186" x="611.0723" y="526.7401">Suplemento</text><line style="stroke:#304D6D;stroke-width:1.0417;" x1="529.4583" x2="730.4547" y1="539.859" y2="539.859"/><g data-visibility-modifier="PRIVATE_FIELD"><rect fill="none" height="6.25" style="stroke:#304D6D;stroke-width:1.0417;" width="6.25" x="536.75" y="554.3407"/></g><text fill="#EEEEEE" font-family="'Verdana'" font-size="11.4583" lengthAdjust="spacing" textLength="116.2842" x="553.4167" y="559.8699">presentacion: String</text><g data-visibility-modifier="PRIVATE_FIELD"><rect fill="none" height="6.25" style="stroke:#304D6D;stroke-width:1.0417;" width="6.25" x="536.75" y="578.0955"/></g><text fill="#EEEEEE" font-family="'Verdana'" font-size="11.4583" lengthAdjust="spacing" textLength="104.3279" x="553.4167" y="583.6248">laboratorio: String</text><g data-visibility-modifier="PRIVATE_FIELD"><rect fill="none" height="6.25" style="stroke:#304D6D;stroke-width:1.0417;" width="6.25" x="536.75" y="601.8504"/></g><text fill="#EEEEEE" font-family="'Verdana'" font-size="11.4583" lengthAdjust="spacing" textLength="71.1054" x="553.4167" y="607.3797">dosis: String</text><g data-visibility-modifier="PRIVATE_FIELD"><rect fill="none" height="6.25" style="stroke:#304D6D;stroke-width:1.0417;" width="6.25" x="536.75" y="625.6053"/></g><text fill="#EEEEEE" font-family="'Verdana'" font-size="11.4583" lengthAdjust="spacing" textLength="79.1285" x="553.4167" y="631.1346">stock: Integer</text><g data-visibility-modifier="PRIVATE_FIELD"><rect fill="none" height="6.25" style="stroke:#304D6D;stroke-width:1.0417;" width="6.25" x="536.75" y="649.3602"/></g><text fill="#EEEEEE" font-family="'Verdana'" font-size="11.4583" lengthAdjust="spacing" textLength="86.1669" x="553.4167" y="654.8895">nombre: String</text><g data-visibility-modifier="PRIVATE_FIELD"><rect fill="none" height="6.25" style="stroke:#304D6D;stroke-width:1.0417;" width="6.25" x="536.75" y="673.1151"/></g><text fill="#EEEEEE" font-family="'Verdana'" font-size="11.4583" lengthAdjust="spacing" textLength="83.6324" x="553.4167" y="678.6443">precio: Double</text><g data-visibility-modifier="PRIVATE_FIELD"><rect fill="none" height="6.25" style="stroke:#304D6D;stroke-width:1.0417;" width="6.25" x="536.75" y="696.87"/></g><text fill="#EEEEEE" font-family="'Verdana'" font-size="11.4583" lengthAdjust="spacing" textLength="45.8893" x="553.4167" y="702.3992">id: Long</text><line style="stroke:#304D6D;stroke-width:1.0417;" x1="529.4583" x2="730.4547" y1="714.4766" y2="714.4766"/><g data-visibility-modifier="PUBLIC_METHOD"><ellipse cx="539.875" cy="732.0832" fill="none" rx="3.125" ry="3.125" style="stroke:#304D6D;stroke-width:1.0417;"/></g><text fill="#EEEEEE" font-family="'Verdana'" font-size="11.4583" lengthAdjust="spacing" textLength="131.133" x="553.4167" y="734.4874">setStock(Integer): void</text><g data-visibility-modifier="PUBLIC_METHOD"><ellipse cx="539.875" cy="755.8381" fill="none" rx="3.125" ry="3.125" style="stroke:#304D6D;stroke-width:1.0417;"/></g><text fill="#EEEEEE" font-family="'Verdana'" font-size="11.4583" lengthAdjust="spacing" textLength="96.786" x="553.4167" y="758.2423">setId(Long): void</text><g data-visibility-modifier="PUBLIC_METHOD"><ellipse cx="539.875" cy="779.5929" fill="none" rx="3.125" ry="3.125" style="stroke:#304D6D;stroke-width:1.0417;"/></g><text fill="#EEEEEE" font-family="'Verdana'" font-size="11.4583" lengthAdjust="spacing" textLength="96.3384" x="553.4167" y="781.9972">toString(): String</text><g data-visibility-modifier="PUBLIC_METHOD"><ellipse cx="539.875" cy="803.3478" fill="none" rx="3.125" ry="3.125" style="stroke:#304D6D;stroke-width:1.0417;"/></g><text fill="#EEEEEE" font-family="'Verdana'" font-size="11.4583" lengthAdjust="spacing" textLength="133.9696" x="553.4167" y="805.7521">setPrecio(Double): void</text><g data-visibility-modifier="PROTECTED_METHOD"><polygon fill="none" points="539.875,821.8944,544.0417,826.061,539.875,830.2277,535.7083,826.061" style="stroke:#304D6D;stroke-width:1.0417;"/></g><text fill="#EEEEEE" font-family="'Verdana'" font-size="11.4583" lengthAdjust="spacing" textLength="152.1362" x="553.4167" y="829.507">canEqual(Object): boolean</text><g data-visibility-modifier="PUBLIC_METHOD"><ellipse cx="539.875" cy="850.8576" fill="none" rx="3.125" ry="3.125" style="stroke:#304D6D;stroke-width:1.0417;"/></g><text fill="#EEEEEE" font-family="'Verdana'" font-size="11.4583" lengthAdjust="spacing" textLength="73.8413" x="553.4167" y="853.2619">getId(): Long</text><g data-visibility-modifier="PUBLIC_METHOD"><ellipse cx="539.875" cy="874.6125" fill="none" rx="3.125" ry="3.125" style="stroke:#304D6D;stroke-width:1.0417;"/></g><text fill="#EEEEEE" font-family="'Verdana'" font-size="11.4583" lengthAdjust="spacing" textLength="100.4115" x="553.4167" y="877.0167">getDosis(): String</text><g data-visibility-modifier="PUBLIC_METHOD"><ellipse cx="539.875" cy="898.3674" fill="none" rx="3.125" ry="3.125" style="stroke:#304D6D;stroke-width:1.0417;"/></g><text fill="#EEEEEE" font-family="'Verdana'" font-size="11.4583" lengthAdjust="spacing" textLength="138.177" x="553.4167" y="900.7716">setNombre(String): void</text><g data-visibility-modifier="PUBLIC_METHOD"><ellipse cx="539.875" cy="922.1222" fill="none" rx="3.125" ry="3.125" style="stroke:#304D6D;stroke-width:1.0417;"/></g><text fill="#EEEEEE" font-family="'Verdana'" font-size="11.4583" lengthAdjust="spacing" textLength="137.3322" x="553.4167" y="924.5265">equals(Object): boolean</text><g data-visibility-modifier="PUBLIC_METHOD"><ellipse cx="539.875" cy="945.8771" fill="none" rx="3.125" ry="3.125" style="stroke:#304D6D;stroke-width:1.0417;"/></g><text fill="#EEEEEE" font-family="'Verdana'" font-size="11.4583" lengthAdjust="spacing" textLength="115.2323" x="553.4167" y="948.2814">getNombre(): String</text><g data-visibility-modifier="PUBLIC_METHOD"><ellipse cx="539.875" cy="969.632" fill="none" rx="3.125" ry="3.125" style="stroke:#304D6D;stroke-width:1.0417;"/></g><text fill="#EEEEEE" font-family="'Verdana'" font-size="11.4583" lengthAdjust="spacing" textLength="158.2291" x="553.4167" y="972.0363">setLaboratorio(String): void</text><g data-visibility-modifier="PUBLIC_METHOD"><ellipse cx="539.875" cy="993.3869" fill="none" rx="3.125" ry="3.125" style="stroke:#304D6D;stroke-width:1.0417;"/></g><text fill="#EEEEEE" font-family="'Verdana'" font-size="11.4583" lengthAdjust="spacing" textLength="111.025" x="553.4167" y="995.7912">getPrecio(): Double</text><g data-visibility-modifier="PUBLIC_METHOD"><ellipse cx="539.875" cy="1017.1418" fill="none" rx="3.125" ry="3.125" style="stroke:#304D6D;stroke-width:1.0417;"/></g><text fill="#EEEEEE" font-family="'Verdana'" font-size="11.4583" lengthAdjust="spacing" textLength="88.2314" x="553.4167" y="1019.546">hashCode(): int</text><g data-visibility-modifier="PUBLIC_METHOD"><ellipse cx="539.875" cy="1040.8966" fill="none" rx="3.125" ry="3.125" style="stroke:#304D6D;stroke-width:1.0417;"/></g><text fill="#EEEEEE" font-family="'Verdana'" font-size="11.4583" lengthAdjust="spacing" textLength="166.6214" x="553.4167" y="1043.3009">setPresentacion(String): void</text><g data-visibility-modifier="PUBLIC_METHOD"><ellipse cx="539.875" cy="1064.6515" fill="none" rx="3.125" ry="3.125" style="stroke:#304D6D;stroke-width:1.0417;"/></g><text fill="#EEEEEE" font-family="'Verdana'" font-size="11.4583" lengthAdjust="spacing" textLength="143.6768" x="553.4167" y="1067.0558">getPresentacion(): String</text><g data-visibility-modifier="PUBLIC_METHOD"><ellipse cx="539.875" cy="1088.4064" fill="none" rx="3.125" ry="3.125" style="stroke:#304D6D;stroke-width:1.0417;"/></g><text fill="#EEEEEE" font-family="'Verdana'" font-size="11.4583" lengthAdjust="spacing" textLength="123.3561" x="553.4167" y="1090.8107">setDosis(String): void</text><g data-visibility-modifier="PUBLIC_METHOD"><ellipse cx="539.875" cy="1112.1613" fill="none" rx="3.125" ry="3.125" style="stroke:#304D6D;stroke-width:1.0417;"/></g><text fill="#EEEEEE" font-family="'Verdana'" font-size="11.4583" lengthAdjust="spacing" textLength="135.2844" x="553.4167" y="1114.5656">getLaboratorio(): String</text><g data-visibility-modifier="PUBLIC_METHOD"><ellipse cx="539.875" cy="1135.9162" fill="none" rx="3.125" ry="3.125" style="stroke:#304D6D;stroke-width:1.0417;"/></g><text fill="#EEEEEE" font-family="'Verdana'" font-size="11.4583" lengthAdjust="spacing" textLength="108.1884" x="553.4167" y="1138.3205">getStock(): Integer</text></g><!--class SuplementoController--><g class="entity" data-qualified-name="SuplementoController" data-source-line="46" id="ent0005"><rect fill="url(#g1i2se0tx6381z0)" height="169.6126" rx="4.1667" ry="4.1667" style="stroke:#304D6D;stroke-width:1.0417;" width="351.2436" x="454.3333" y="273.5729"/><rect fill="url(#g1i2se0tx6381z1)" height="34.1715" rx="4.1667" ry="4.1667" style="stroke:url(#g1i2se0tx6381z1);stroke-width:1.0417;" width="351.2436" x="454.3333" y="273.5729"/><rect fill="url(#g1i2se0tx6381z1)" height="4.1667" style="stroke:url(#g1i2se0tx6381z1);stroke-width:1.0417;" width="351.2436" x="454.3333" y="303.5778"/><rect fill="none" height="169.6126" rx="4.1667" ry="4.1667" style="stroke:#304D6D;stroke-width:1.0417;" width="351.2436" x="454.3333" y="273.5729"/><ellipse cx="557.7635" cy="290.6587" fill="#B8B8B8" rx="10.4167" ry="10.4167" style="stroke:#6B6B6B;stroke-width:1.0417;"/><path d="M559.6678,295.0858 Q559.2446,295.2974 558.7726,295.4113 Q558.3006,295.5252 557.7961,295.5252 Q555.9406,295.5252 554.964,294.3208 Q554.0037,293.1001 554.0037,290.8052 Q554.0037,288.494 554.964,287.2896 Q555.9406,286.0688 557.7961,286.0688 Q558.3006,286.0688 558.7726,286.1828 Q559.2609,286.2804 559.6678,286.5083 L559.6678,288.5103 Q559.2121,288.0871 558.7726,287.8918 Q558.3332,287.6802 557.8774,287.6802 Q556.8846,287.6802 556.38,288.4777 Q555.8755,289.259 555.8755,290.8052 Q555.8755,292.3351 556.38,293.1164 Q556.8846,293.8976 557.8774,293.8976 Q558.3332,293.8976 558.7726,293.7023 Q559.2121,293.507 559.6678,293.0838 L559.6678,295.0858 Z " fill="#FFFFFF"/><text fill="#EEEEEE" font-family="'Verdana'" font-size="11.4583" lengthAdjust="spacing" textLength="125.6332" x="582.7635" y="294.6255">SuplementoController</text><line style="stroke:#304D6D;stroke-width:1.0417;" x1="455.375" x2="804.5353" y1="307.7445" y2="307.7445"/><line style="stroke:#304D6D;stroke-width:1.0417;" x1="455.375" x2="804.5353" y1="316.0778" y2="316.0778"/><g data-visibility-modifier="PUBLIC_METHOD"><ellipse cx="465.7917" cy="333.6844" fill="none" rx="3.125" ry="3.125" style="stroke:#304D6D;stroke-width:1.0417;"/></g><text fill="#EEEEEE" font-family="'Verdana'" font-size="11.4583" lengthAdjust="spacing" textLength="314.7853" x="479.3333" y="336.0887">actualizarSuplemento(SuplementoDAO, Scanner): void</text><g data-visibility-modifier="PUBLIC_METHOD"><ellipse cx="465.7917" cy="357.4393" fill="none" rx="3.125" ry="3.125" style="stroke:#304D6D;stroke-width:1.0417;"/></g><text fill="#EEEEEE" font-family="'Verdana'" font-size="11.4583" lengthAdjust="spacing" textLength="297.111" x="479.3333" y="359.8436">buscarSuplemento(SuplementoDAO, Scanner): void</text><g data-visibility-modifier="PUBLIC_METHOD"><ellipse cx="465.7917" cy="381.1942" fill="none" rx="3.125" ry="3.125" style="stroke:#304D6D;stroke-width:1.0417;"/></g><text fill="#EEEEEE" font-family="'Verdana'" font-size="11.4583" lengthAdjust="spacing" textLength="305.3299" x="479.3333" y="383.5984">eliminarSuplemento(SuplementoDAO, Scanner): void</text><g data-visibility-modifier="PUBLIC_METHOD"><ellipse cx="465.7917" cy="404.9491" fill="none" rx="3.125" ry="3.125" style="stroke:#304D6D;stroke-width:1.0417;"/></g><text fill="#EEEEEE" font-family="'Verdana'" font-size="11.4583" lengthAdjust="spacing" textLength="303.6346" x="479.3333" y="407.3533">agregarSuplemento(SuplementoDAO, Scanner): void</text><g data-visibility-modifier="PUBLIC_METHOD"><ellipse cx="465.7917" cy="428.7039" fill="none" rx="3.125" ry="3.125" style="stroke:#304D6D;stroke-width:1.0417;"/></g><text fill="#EEEEEE" font-family="'Verdana'" font-size="11.4583" lengthAdjust="spacing" textLength="238.9409" x="479.3333" y="431.1082">listarSuplementos(SuplementoDAO): void</text></g><!--class SuplementoDAO--><g class="entity" data-qualified-name="SuplementoDAO" data-source-line="53" id="ent0006"><rect fill="url(#g1i2se0tx6381z0)" height="169.6126" rx="4.1667" ry="4.1667" style="stroke:#304D6D;stroke-width:1.0417;" width="240.2634" x="842.1146" y="273.5729"/><rect fill="url(#g1i2se0tx6381z1)" height="34.1715" rx="4.1667" ry="4.1667" style="stroke:url(#g1i2se0tx6381z1);stroke-width:1.0417;" width="240.2634" x="842.1146" y="273.5729"/><rect fill="url(#g1i2se0tx6381z1)" height="4.1667" style="stroke:url(#g1i2se0tx6381z1);stroke-width:1.0417;" width="240.2634" x="842.1146" y="303.5778"/><rect fill="none" height="169.6126" rx="4.1667" ry="4.1667" style="stroke:#304D6D;stroke-width:1.0417;" width="240.2634" x="842.1146" y="273.5729"/><ellipse cx="905.5217" cy="290.6587" fill="#B8B8B8" rx="10.4167" ry="10.4167" style="stroke:#6B6B6B;stroke-width:1.0417;"/><path d="M907.426,295.0858 Q907.0028,295.2974 906.5308,295.4113 Q906.0588,295.5252 905.5543,295.5252 Q903.6988,295.5252 902.7222,294.3208 Q901.762,293.1001 901.762,290.8052 Q901.762,288.494 902.7222,287.2896 Q903.6988,286.0688 905.5543,286.0688 Q906.0588,286.0688 906.5308,286.1828 Q907.0191,286.2804 907.426,286.5083 L907.426,288.5103 Q906.9703,288.0871 906.5308,287.8918 Q906.0914,287.6802 905.6357,287.6802 Q904.6428,287.6802 904.1383,288.4777 Q903.6337,289.259 903.6337,290.8052 Q903.6337,292.3351 904.1383,293.1164 Q904.6428,293.8976 905.6357,293.8976 Q906.0914,293.8976 906.5308,293.7023 Q906.9703,293.507 907.426,293.0838 L907.426,295.0858 Z " fill="#FFFFFF"/><text fill="#EEEEEE" font-family="'Verdana'" font-size="11.4583" lengthAdjust="spacing" textLength="94.6991" x="930.5217" y="294.6255">SuplementoDAO</text><line style="stroke:#304D6D;stroke-width:1.0417;" x1="843.1563" x2="1081.3363" y1="307.7445" y2="307.7445"/><line style="stroke:#304D6D;stroke-width:1.0417;" x1="843.1563" x2="1081.3363" y1="316.0778" y2="316.0778"/><g data-visibility-modifier="PUBLIC_METHOD"><ellipse cx="853.5729" cy="333.6844" fill="none" rx="3.125" ry="3.125" style="stroke:#304D6D;stroke-width:1.0417;"/></g><text fill="#EEEEEE" font-family="'Verdana'" font-size="11.4583" lengthAdjust="spacing" textLength="203.805" x="867.1146" y="336.0887">obtenerTodos(): List&lt;Suplemento&gt;</text><g data-visibility-modifier="PUBLIC_METHOD"><ellipse cx="853.5729" cy="357.4393" fill="none" rx="3.125" ry="3.125" style="stroke:#304D6D;stroke-width:1.0417;"/></g><text fill="#EEEEEE" font-family="'Verdana'" font-size="11.4583" lengthAdjust="spacing" textLength="165.922" x="867.1146" y="359.8436">actualizar(Suplemento): void</text><g data-visibility-modifier="PUBLIC_METHOD"><ellipse cx="853.5729" cy="381.1942" fill="none" rx="3.125" ry="3.125" style="stroke:#304D6D;stroke-width:1.0417;"/></g><text fill="#EEEEEE" font-family="'Verdana'" font-size="11.4583" lengthAdjust="spacing" textLength="115.3778" x="867.1146" y="383.5984">eliminar(Long): void</text><g data-visibility-modifier="PUBLIC_METHOD"><ellipse cx="853.5729" cy="404.9491" fill="none" rx="3.125" ry="3.125" style="stroke:#304D6D;stroke-width:1.0417;"/></g><text fill="#EEEEEE" font-family="'Verdana'" font-size="11.4583" lengthAdjust="spacing" textLength="139.503" x="867.1146" y="407.3533">crear(Suplemento): void</text><g data-visibility-modifier="PUBLIC_METHOD"><ellipse cx="853.5729" cy="428.7039" fill="none" rx="3.125" ry="3.125" style="stroke:#304D6D;stroke-width:1.0417;"/></g><text fill="#EEEEEE" font-family="'Verdana'" font-size="11.4583" lengthAdjust="spacing" textLength="181.2129" x="867.1146" y="431.1082">buscarPorId(Long): Suplemento</text></g><!--class SuplementoView--><g class="entity" data-qualified-name="SuplementoView" data-source-line="60" id="ent0007"><rect fill="url(#g1i2se0tx6381z0)" height="145.8577" rx="4.1667" ry="4.1667" style="stroke:#304D6D;stroke-width:1.0417;" width="232.0557" x="680.5938" y="41.4583"/><rect fill="url(#g1i2se0tx6381z1)" height="34.1715" rx="4.1667" ry="4.1667" style="stroke:url(#g1i2se0tx6381z1);stroke-width:1.0417;" width="232.0557" x="680.5938" y="41.4583"/><rect fill="url(#g1i2se0tx6381z1)" height="4.1667" style="stroke:url(#g1i2se0tx6381z1);stroke-width:1.0417;" width="232.0557" x="680.5938" y="71.4632"/><rect fill="none" height="145.8577" rx="4.1667" ry="4.1667" style="stroke:#304D6D;stroke-width:1.0417;" width="232.0557" x="680.5938" y="41.4583"/><ellipse cx="739.0158" cy="58.5441" fill="#B8B8B8" rx="10.4167" ry="10.4167" style="stroke:#6B6B6B;stroke-width:1.0417;"/><path d="M740.9201,62.9712 Q740.497,63.1828 740.025,63.2967 Q739.5529,63.4106 739.0484,63.4106 Q737.1929,63.4106 736.2164,62.2062 Q735.2561,60.9855 735.2561,58.6906 Q735.2561,56.3794 736.2164,55.175 Q737.1929,53.9543 739.0484,53.9543 Q739.5529,53.9543 740.025,54.0682 Q740.5132,54.1659 740.9201,54.3937 L740.9201,56.3957 Q740.4644,55.9725 740.025,55.7772 Q739.5855,55.5656 739.1298,55.5656 Q738.1369,55.5656 737.6324,56.3631 Q737.1278,57.1444 737.1278,58.6906 Q737.1278,60.2205 737.6324,61.0018 Q738.1369,61.783 739.1298,61.783 Q739.5855,61.783 740.025,61.5877 Q740.4644,61.3924 740.9201,60.9692 L740.9201,62.9712 Z " fill="#FFFFFF"/><text fill="#EEEEEE" font-family="'Verdana'" font-size="11.4583" lengthAdjust="spacing" textLength="96.4615" x="764.0158" y="62.5109">SuplementoView</text><line style="stroke:#304D6D;stroke-width:1.0417;" x1="681.6354" x2="911.6077" y1="75.6299" y2="75.6299"/><g data-visibility-modifier="PACKAGE_PRIVATE_FIELD"><polygon fill="none" points="692.0521,89.0698,687.8854,95.3198,696.2188,95.3198" style="stroke:#446E9B;stroke-width:1.0417;"/></g><text fill="#EEEEEE" font-family="'Verdana'" font-size="11.4583" lengthAdjust="spacing" textLength="195.5973" x="705.5938" y="95.6408">suplementoDAO: SuplementoDAO</text><g data-visibility-modifier="PACKAGE_PRIVATE_FIELD"><polygon fill="none" points="692.0521,112.8247,687.8854,119.0747,696.2188,119.0747" style="stroke:#446E9B;stroke-width:1.0417;"/></g><text fill="#EEEEEE" font-family="'Verdana'" font-size="11.4583" lengthAdjust="spacing" textLength="99.9583" x="705.5938" y="119.3957">scanner: Scanner</text><g data-visibility-modifier="PACKAGE_PRIVATE_FIELD"><polygon fill="none" points="692.0521,136.5796,687.8854,142.8296,696.2188,142.8296" style="stroke:#446E9B;stroke-width:1.0417;"/></g><text fill="#EEEEEE" font-family="'Verdana'" font-size="11.4583" lengthAdjust="spacing" textLength="188.0498" x="705.5938" y="143.1505">controller: SuplementoController</text><line style="stroke:#304D6D;stroke-width:1.0417;" x1="681.6354" x2="911.6077" y1="155.2279" y2="155.2279"/><g data-visibility-modifier="PUBLIC_METHOD"><ellipse cx="692.0521" cy="172.8345" fill="none" rx="3.125" ry="3.125" style="stroke:#304D6D;stroke-width:1.0417;"/></g><text fill="#EEEEEE" font-family="'Verdana'" font-size="11.4583" lengthAdjust="spacing" textLength="94.9397" x="705.5938" y="175.2387">inicializar(): void</text></g><!--link SuplementoController to Suplemento--><g class="link" data-entity-1="ent0005" data-entity-2="ent0004" data-link-type="dependency" data-source-line="67" id="lnk8"><path codeLine="67" d="M629.9479,443.7083 C629.9479,462.4792 629.9479,477.1875 629.9479,499.3646" fill="none" id="SuplementoController-to-Suplemento" style="stroke:#595959;stroke-width:3.125;stroke-dasharray:7.2917,7.2917;"/><polygon fill="#595959" points="629.9479,505.6146,634.1146,496.2396,629.9479,500.4063,625.7813,496.2396,629.9479,505.6146" style="stroke:#595959;stroke-width:3.125;"/><text fill="#FFFFFF" font-family="'Verdana'" font-size="12.5" lengthAdjust="spacing" textLength="39.9536" x="584.1146" y="466.4674">create</text></g><!--link SuplementoView to SuplementoController--><g class="link" data-entity-1="ent0007" data-entity-2="ent0005" data-link-type="dependency" data-source-line="68" id="lnk9"><path codeLine="68" d="M722.25,187.5938 C722.25,214.5417 722.25,239.0521 722.25,266.9688" fill="none" id="SuplementoView-to-SuplementoController" style="stroke:#595959;stroke-width:3.125;stroke-dasharray:7.2917,7.2917;"/><polygon fill="#595959" points="722.25,273.2188,726.4167,263.8438,722.25,268.0104,718.0833,263.8438,722.25,273.2188" style="stroke:#595959;stroke-width:3.125;"/><text fill="#FFFFFF" font-family="'Verdana'" font-size="12.5" lengthAdjust="spacing" textLength="39.9536" x="676.4167" y="222.2174">create</text></g><!--link SuplementoView to SuplementoController--><g class="link" data-entity-1="ent0007" data-entity-2="ent0005" data-link-type="composition" data-source-line="69" id="lnk10"><path codeLine="69" d="M763.9167,200.0938 C763.9167,227.0417 763.9167,239.0521 763.9167,266.9688" fill="none" id="SuplementoView-SuplementoController" style="stroke:#595959;stroke-width:3.125;"/><polygon fill="#595959" points="763.9167,187.5938,759.75,193.8438,763.9167,200.0938,768.0833,193.8438,763.9167,187.5938" style="stroke:#595959;stroke-width:3.125;"/><polygon fill="#595959" points="763.9167,273.2188,768.0833,263.8438,763.9167,268.0104,759.75,263.8438,763.9167,273.2188" style="stroke:#595959;stroke-width:3.125;"/><text fill="#FFFFFF" font-family="'Verdana'" font-size="12.5" lengthAdjust="spacing" textLength="7.9529" x="747.4871" y="212.5722">1</text><text fill="#FFFFFF" font-family="'Verdana'" font-size="12.5" lengthAdjust="spacing" textLength="59.906" x="707.8696" y="242.5556">controller</text><text fill="#FFFFFF" font-family="'Verdana'" font-size="12.5" lengthAdjust="spacing" textLength="7.9529" x="733.8462" y="257.1064">1</text></g><!--link SuplementoView to SuplementoDAO--><g class="link" data-entity-1="ent0007" data-entity-2="ent0006" data-link-type="dependency" data-source-line="70" id="lnk11"><path codeLine="70" d="M865.625,187.5938 C865.625,214.5417 865.625,239.0521 865.625,266.9688" fill="none" id="SuplementoView-to-SuplementoDAO" style="stroke:#595959;stroke-width:3.125;stroke-dasharray:7.2917,7.2917;"/><polygon fill="#595959" points="865.625,273.2188,869.7917,263.8438,865.625,268.0104,861.4583,263.8438,865.625,273.2188" style="stroke:#595959;stroke-width:3.125;"/><text fill="#FFFFFF" font-family="'Verdana'" font-size="12.5" lengthAdjust="spacing" textLength="39.9536" x="819.7917" y="222.2174">create</text></g><!--link SuplementoView to SuplementoDAO--><g class="link" data-entity-1="ent0007" data-entity-2="ent0006" data-link-type="composition" data-source-line="71" id="lnk12"><path codeLine="71" d="M889.1354,200.0938 C889.1354,227.0417 889.1354,239.0521 889.1354,266.9688" fill="none" id="SuplementoView-SuplementoDAO" style="stroke:#595959;stroke-width:3.125;"/><polygon fill="#595959" points="889.1354,187.5938,884.9688,193.8438,889.1354,200.0938,893.3021,193.8438,889.1354,187.5938" style="stroke:#595959;stroke-width:3.125;"/><polygon fill="#595959" points="889.1354,273.2188,893.3021,263.8438,889.1354,268.0104,884.9688,263.8438,889.1354,273.2188" style="stroke:#595959;stroke-width:3.125;"/><text fill="#FFFFFF" font-family="'Verdana'" font-size="12.5" lengthAdjust="spacing" textLength="7.9529" x="884.6407" y="212.5722">1</text><text fill="#FFFFFF" font-family="'Verdana'" font-size="12.5" lengthAdjust="spacing" textLength="101.886" x="800.2325" y="242.3792">suplementoDAO</text><text fill="#FFFFFF" font-family="'Verdana'" font-size="12.5" lengthAdjust="spacing" textLength="7.9529" x="847.1991" y="256.93">1</text></g><?plantuml-src dLNDRjD04BxxAORquk3cm8435gg4sY8LjRHI49VImtezE4lNEsPtKrGGl12FmArFngxjPDU98qYSIp8_ttpppOppp2wmHZ0DuoXPaIIM6h041LbBDPH28xU2L6BkXMgOPZL8eT0-DWYaxOAIX4jc3Bnhs1prW-08FnA06M3zEOTpPOLzl6AALQZVCcv9Fpfl1XNQWI-TRWItKLoIGUzw854cF_jILqoelaYnD9pf-RAHhWjbAGrVpzvS7yESCwLGhn1yYYEnP59ytpUjqbZjbPD1xOYcSwk5gcxlOZ2KeXPgJmPI61kdc67Efah1sMlLQ3Jk9-Dkd3bqj3fWLf1cRZI21lQIZ303Yx74xtEuK1Qx4Sr0KLre74IvGjn3dT6oaDYQH9d39RN-30pQkGTAUvnOCkUxA5CV6bijTV1-5TQ5sk2RjbRQbGefH-3qE__g1frU5r_S2ZjNGIIHgTNwkJBJY9IpdFb-jqkyRplivnYpGezlTXReyxRmBeFS8w3LkgTff6062sOMfrIsU4BPgF_rK7UYXOWjCbtFeuanps5UjHhWDEp2zjgTahAQf4JTBc1ssELb-zzuTiXzPGTT-C4twPozAbHOTAWVo9rRkv4EydK8FDcGBYemrl7MwN2DEvCwPMz8XvCBWIEaFmhyrhB-1IRk91ysrWLqOkKhrLeZNwz4FheeBIkX11Tziq70P7InO7PxzFAL_noNxa2ml9kTGFpg2qyEawVVNWsBJtycoKPN_VCFkAZo_y1DNapWUO1ifFi_y8YJeCCdvM962np6qE_L7WtlP3YOxmP9P_aB?></g></svg>